<?xml version="1.0" encoding="utf-8"?>
<!-- Generator: Adobe Illustrator 19.0.0, SVG Export Plug-In . SVG Version: 6.00 Build 0)  -->
<svg version="1.1" id="Camada_1" xmlns="http://www.w3.org/2000/svg" xmlns:xlink="http://www.w3.org/1999/xlink" x="0px" y="0px"
	 viewBox="0 0 336.3 51.5" style="enable-background:new 0 0 336.3 51.5;" xml:space="preserve">
<style type="text/css">
	.st0{fill:white;}
</style>
<g id="XMLID_55_">
	<path id="XMLID_56_" class="st0" d="M0,23V0.3h9.1c0.8,0,1.5,0.1,2.3,0.3s1.4,0.5,2,1c0.6,0.5,1,1.2,1.4,2.1
		c0.3,0.9,0.5,2.1,0.5,3.5c0,1.2-0.1,2.2-0.4,2.9c-0.2,0.8-0.6,1.4-1,1.9c-0.4,0.5-0.8,0.8-1.3,1.1c-0.5,0.2-1,0.4-1.4,0.5l4.5,9.5
		h-3.2L8.2,14c-0.3,0-0.7,0-1.1,0c-0.4,0-0.9,0-1.4,0c-0.5,0-1,0-1.4,0c-0.5,0-0.9,0-1.2,0V23H0z M3.1,11.5h5.5
		c0.5,0,0.9-0.1,1.4-0.2c0.4-0.1,0.8-0.3,1.1-0.6c0.3-0.3,0.6-0.8,0.8-1.3C12,8.8,12.1,8,12.1,7.2c0-0.9-0.1-1.6-0.3-2.1
		c-0.2-0.5-0.4-0.9-0.8-1.2c-0.3-0.3-0.7-0.5-1.1-0.6C9.5,3.1,9.1,3,8.6,3H3.1V11.5z"/>
	<path id="XMLID_59_" class="st0" d="M20.7,23l7.6-22.8h4L39.8,23h-3.2l-2-6h-8.7l-2,6H20.7z M26.6,14.3h7.2L30.2,3L26.6,14.3z"/>
	<path id="XMLID_62_" class="st0" d="M45.5,23V5c0-0.9,0.1-1.7,0.4-2.3c0.3-0.6,0.6-1.1,1.1-1.5c0.5-0.4,1-0.6,1.5-0.8
		c0.6-0.2,1.1-0.2,1.7-0.2c0.8,0,1.8,0,2.9,0c1.1,0,2.2,0,3.4,0.1c1.2,0,2.3,0.1,3.4,0.2v2.5H51c-0.8,0-1.4,0.2-1.8,0.6
		c-0.4,0.4-0.6,1-0.6,1.8v5.3l9.8,0.2v2.4l-9.8,0.2V23H45.5z"/>
	<path id="XMLID_64_" class="st0" d="M63.2,23l7.6-22.8h4L82.3,23h-3.2l-2-6h-8.7l-2,6H63.2z M69.1,14.3h7.2L72.7,3L69.1,14.3z"/>
	<path id="XMLID_67_" class="st0" d="M93,23.2c-0.5,0-1.1,0-1.6-0.1c-0.6-0.1-1.1-0.3-1.7-0.6s-1-0.8-1.3-1.4
		c-0.3-0.6-0.5-1.5-0.5-2.5V5c0-0.9,0.1-1.7,0.4-2.3c0.3-0.6,0.6-1.1,1.1-1.5c0.5-0.4,1-0.6,1.5-0.8c0.6-0.2,1.1-0.2,1.7-0.2
		c1.3,0,2.6,0,3.7,0.1c1.1,0,2.2,0.1,3.1,0.1c1,0,1.9,0.1,2.8,0.1v2.6h-8.8c-0.8,0-1.4,0.2-1.8,0.6c-0.4,0.4-0.6,1-0.6,1.9v4.7
		l9.8,0.2v2.4l-9.8,0.2v4.7c0,0.7,0.1,1.2,0.4,1.6c0.2,0.4,0.5,0.6,0.9,0.7s0.8,0.2,1.2,0.2h8.7v2.6c-0.9,0.1-1.9,0.1-3,0.2
		c-1.1,0.1-2.1,0.1-3.2,0.1C95.1,23.1,94,23.2,93,23.2z"/>
	<path id="XMLID_69_" class="st0" d="M114.1,23c-1,0-1.8-0.1-2.5-0.4c-0.7-0.3-1.3-0.8-1.7-1.5c-0.4-0.7-0.6-1.7-0.6-2.9v-18h3.1
		v17.5c0,0.7,0.1,1.2,0.3,1.5c0.2,0.4,0.5,0.6,0.9,0.7c0.4,0.1,0.8,0.2,1.2,0.2h7.9V23H114.1z"/>
	<path id="XMLID_71_" class="st0" d="M146.8,23.2c-1.4,0-2.6-0.2-3.6-0.7c-0.9-0.5-1.7-1.2-2.2-2.2c-0.5-1-0.9-2.2-1.1-3.6
		s-0.3-3.1-0.3-5.1c0-1.9,0.1-3.6,0.4-5c0.2-1.4,0.6-2.6,1.2-3.6c0.6-1,1.4-1.7,2.4-2.2c1-0.5,2.3-0.7,3.9-0.7c0.9,0,1.8,0,2.6,0.1
		c0.9,0.1,1.7,0.2,2.5,0.3c0.8,0.1,1.6,0.3,2.3,0.4v2.4c-0.4-0.1-1-0.1-1.7-0.2c-0.7-0.1-1.6-0.1-2.5-0.2S149,2.9,148,2.9
		c-1.4,0-2.5,0.3-3.3,0.9c-0.8,0.6-1.3,1.5-1.6,2.8c-0.3,1.3-0.4,3-0.4,5.1c0,1.7,0.1,3.1,0.2,4.3c0.2,1.1,0.4,2,0.8,2.7
		c0.4,0.6,0.9,1.1,1.5,1.4c0.6,0.3,1.5,0.4,2.5,0.4c0.9,0,1.9-0.1,2.8-0.3c0.9-0.2,1.7-0.5,2.4-0.7v-6h-5.1v-2.4
		c0.4-0.1,0.9-0.1,1.5-0.2c0.6,0,1.2-0.1,1.8-0.1c0.6,0,1.3,0,1.9,0c0.6,0,1.1,0,1.6,0c0.5,0,0.9,0.1,1.3,0.1V23h-2.3l-0.5-1.6
		c-0.7,0.4-1.6,0.7-2.7,1.1C149.3,23,148.1,23.2,146.8,23.2z"/>
	<path id="XMLID_73_" class="st0" d="M172,23.2c-1.5,0-2.8-0.1-3.9-0.4c-1.1-0.3-2.1-0.8-2.8-1.6c-0.8-0.8-1.3-1.9-1.7-3.5
		c-0.4-1.5-0.6-3.5-0.6-6s0.2-4.5,0.6-6s0.9-2.7,1.7-3.5c0.8-0.8,1.7-1.4,2.8-1.7c1.1-0.3,2.4-0.4,3.9-0.4c1.5,0,2.8,0.1,4,0.4
		c1.1,0.3,2.1,0.9,2.8,1.7c0.7,0.8,1.3,2,1.7,3.5c0.4,1.5,0.6,3.5,0.6,6s-0.2,4.5-0.6,6c-0.4,1.5-0.9,2.7-1.7,3.5
		c-0.8,0.8-1.7,1.3-2.8,1.6C174.8,23.1,173.5,23.2,172,23.2z M172,20.4c1.1,0,2-0.1,2.7-0.3c0.8-0.2,1.4-0.6,1.8-1.3
		c0.5-0.6,0.8-1.5,1-2.6c0.2-1.1,0.3-2.6,0.3-4.5c0-2-0.1-3.5-0.3-4.7c-0.2-1.2-0.6-2.1-1-2.7c-0.5-0.6-1.1-1-1.8-1.2
		C173.9,3,173,2.9,172,2.9c-1,0-1.9,0.1-2.6,0.3c-0.7,0.2-1.3,0.6-1.8,1.2C167,5,166.7,5.9,166.4,7c-0.2,1.2-0.4,2.7-0.4,4.7
		c0,1.9,0.1,3.4,0.3,4.5c0.2,1.1,0.5,2,1,2.6c0.5,0.6,1.1,1,1.8,1.3C169.9,20.3,170.9,20.4,172,20.4z"/>
	<path id="XMLID_76_" class="st0" d="M188.3,23V0.3h2.5L202,17.7V0.3h3.1V23h-2.5L191.4,5.6V23H188.3z"/>
	<path id="XMLID_78_" class="st0" d="M219.9,23.2c-1.4,0-2.5-0.2-3.6-0.5c-1-0.3-1.9-0.9-2.5-1.7c-0.7-0.8-1.2-2-1.5-3.5
		c-0.3-1.5-0.5-3.5-0.5-6c0-2.3,0.2-4.2,0.5-5.7c0.3-1.5,0.9-2.7,1.5-3.5c0.7-0.8,1.6-1.4,2.6-1.8c1-0.3,2.2-0.5,3.6-0.5
		c0.8,0,1.6,0,2.4,0.1c0.8,0.1,1.6,0.2,2.3,0.3c0.8,0.1,1.4,0.3,2,0.4v2.3c-0.4-0.1-0.9-0.1-1.5-0.2c-0.6-0.1-1.4-0.1-2.2-0.2
		c-0.8-0.1-1.6-0.1-2.5-0.1c-1,0-1.9,0.1-2.6,0.4c-0.7,0.2-1.3,0.7-1.8,1.3c-0.5,0.6-0.8,1.5-1,2.7c-0.2,1.1-0.3,2.6-0.3,4.4
		c0,1.8,0.1,3.3,0.3,4.5c0.2,1.2,0.5,2.1,0.9,2.7c0.4,0.6,1,1.1,1.7,1.3c0.7,0.2,1.6,0.4,2.7,0.4c1.5,0,2.8,0,3.8-0.1
		c1-0.1,1.8-0.2,2.4-0.2v2.4c-0.6,0.1-1.3,0.3-2,0.4c-0.7,0.1-1.5,0.2-2.3,0.3S220.7,23.2,219.9,23.2z M218.3,29v-1.3l0.6-0.1
		c0.5,0,0.9-0.2,1.2-0.4c0.3-0.2,0.4-0.5,0.4-0.9c0-0.3-0.1-0.6-0.4-0.9s-0.7-0.4-1.5-0.4l1.3-0.4c0.8,0,1.5,0.2,1.9,0.5
		c0.4,0.3,0.7,0.8,0.7,1.5c0,0.7-0.3,1.3-0.8,1.7c-0.5,0.4-1.3,0.6-2.3,0.6H218.3z M218.6,25l1.6-2.5h1.4l-1.6,2.5H218.6z"/>
	<path id="XMLID_82_" class="st0" d="M232.1,23l7.6-22.8h4l7.6,22.8H248l-2-6h-8.7l-2,6H232.1z M238,14.3h7.2L241.6,3L238,14.3z"/>
	<path id="XMLID_85_" class="st0" d="M262.3,23c-1,0-1.8-0.1-2.5-0.4c-0.7-0.3-1.3-0.8-1.7-1.5s-0.6-1.7-0.6-2.9v-18h3.1v17.5
		c0,0.7,0.1,1.2,0.3,1.5c0.2,0.4,0.5,0.6,0.9,0.7c0.4,0.1,0.8,0.2,1.2,0.2h7.9V23H262.3z"/>
	<path id="XMLID_87_" class="st0" d="M282.5,23l-7.6-22.8h3.2l6.4,19.5l6.4-19.5h3.2L286.5,23H282.5z"/>
	<path id="XMLID_89_" class="st0" d="M304.6,23.2c-0.5,0-1.1,0-1.6-0.1c-0.6-0.1-1.1-0.3-1.7-0.6s-1-0.8-1.3-1.4
		c-0.3-0.6-0.5-1.5-0.5-2.5V5c0-0.9,0.1-1.7,0.4-2.3s0.6-1.1,1.1-1.5c0.5-0.4,1-0.6,1.5-0.8c0.6-0.2,1.1-0.2,1.7-0.2
		c1.3,0,2.6,0,3.7,0.1c1.1,0,2.2,0.1,3.1,0.1c1,0,1.9,0.1,2.8,0.1v2.6h-8.8c-0.8,0-1.4,0.2-1.8,0.6c-0.4,0.4-0.6,1-0.6,1.9v4.7
		l9.8,0.2v2.4l-9.8,0.2v4.7c0,0.7,0.1,1.2,0.4,1.6c0.2,0.4,0.5,0.6,0.9,0.7c0.4,0.1,0.8,0.2,1.2,0.2h8.7v2.6c-0.9,0.1-1.9,0.1-3,0.2
		s-2.1,0.1-3.2,0.1C306.7,23.1,305.6,23.2,304.6,23.2z"/>
	<path id="XMLID_91_" class="st0" d="M327.5,23.2c-0.5,0-1.1,0-1.7,0s-1.3-0.1-1.9-0.1c-0.6-0.1-1.3-0.1-1.9-0.2
		c-0.6-0.1-1.1-0.1-1.5-0.2v-2.4c0.5,0,1.2,0.1,1.9,0.1c0.8,0,1.6,0.1,2.4,0.1c0.9,0,1.7,0,2.5,0c0.9,0,1.7-0.1,2.4-0.2
		c0.7-0.2,1.2-0.5,1.6-0.9c0.4-0.5,0.6-1.1,0.6-1.9V16c0-0.9-0.3-1.6-0.8-2.1s-1.3-0.7-2.3-0.7h-2.3c-2,0-3.5-0.4-4.6-1.3
		s-1.6-2.3-1.6-4.5V6.2c0-2.2,0.6-3.7,1.8-4.7c1.2-0.9,2.9-1.4,5.1-1.4c0.7,0,1.5,0,2.3,0.1s1.6,0.2,2.4,0.3
		c0.8,0.1,1.4,0.2,1.9,0.3v2.4c-0.9-0.1-2-0.1-3.1-0.2s-2.2-0.1-3.2-0.1c-0.9,0-1.6,0.1-2.2,0.3c-0.6,0.2-1.1,0.5-1.5,1
		s-0.5,1.2-0.5,2.1v0.9c0,1.1,0.3,1.9,0.9,2.3c0.6,0.4,1.4,0.6,2.5,0.6h2.5c1.3,0,2.4,0.2,3.2,0.7s1.5,1.1,1.9,1.9s0.6,1.8,0.6,2.8
		v1.6c0,1.6-0.3,2.8-1,3.7c-0.7,0.9-1.5,1.5-2.7,1.8C330.2,23.1,328.9,23.2,327.5,23.2z"/>
</g>
<g id="XMLID_27_">
	<path id="XMLID_28_" class="st0" d="M206.4,46.7c-0.9,0-1.6-0.3-2.1-0.8c-0.6-0.5-0.8-1.2-0.8-2.2V43c0-0.9,0.3-1.7,0.9-2.2
		c0.6-0.6,1.5-0.9,2.7-0.9h4.3v-1.6c0-0.5-0.1-1-0.3-1.4c-0.2-0.4-0.5-0.7-1-0.9c-0.5-0.2-1.1-0.3-2-0.3h-3.7v-0.8
		c0.5-0.1,1.1-0.1,1.7-0.2s1.4-0.1,2.3-0.1c1,0,1.7,0.1,2.3,0.4c0.6,0.3,1.1,0.6,1.3,1.2s0.4,1.2,0.4,2v8.4h-1l-0.3-1.4
		c0,0-0.2,0.1-0.5,0.3c-0.3,0.2-0.7,0.3-1.2,0.5s-1,0.4-1.6,0.5C207.5,46.6,207,46.7,206.4,46.7z M206.9,45.7c0.3,0,0.6,0,1-0.1
		c0.4-0.1,0.8-0.2,1.2-0.3c0.4-0.1,0.8-0.2,1.1-0.3c0.3-0.1,0.6-0.2,0.8-0.3c0.2-0.1,0.3-0.1,0.3-0.1v-4l-4.1,0.2
		c-0.9,0-1.6,0.3-1.9,0.7c-0.4,0.4-0.6,1-0.6,1.6v0.6c0,0.5,0.1,1,0.3,1.3c0.2,0.3,0.5,0.5,0.8,0.7
		C206.2,45.6,206.6,45.7,206.9,45.7z"/>
	<path id="XMLID_31_" class="st0" d="M218.4,46.6V34.8h0.9l0.3,2.1c0.6-0.6,1.2-1.2,1.9-1.6c0.7-0.4,1.5-0.6,2.4-0.6
		c0.2,0,0.4,0,0.6,0s0.4,0.1,0.5,0.1v1.3c-0.2,0-0.4-0.1-0.6-0.1c-0.2,0-0.4,0-0.7,0c-0.6,0-1.1,0.1-1.5,0.2
		c-0.4,0.1-0.9,0.4-1.3,0.6c-0.4,0.3-0.8,0.6-1.3,1.1v8.6H218.4z"/>
	<path id="XMLID_33_" class="st0" d="M237.4,51.8v-6.4c-0.6,0.4-1.3,0.7-2,1c-0.7,0.2-1.4,0.4-2.1,0.4c-1,0-1.8-0.2-2.4-0.7
		c-0.6-0.5-1-1.1-1.3-2s-0.4-2-0.4-3.3c0-1.3,0.2-2.4,0.5-3.3s0.8-1.6,1.4-2c0.6-0.4,1.5-0.7,2.5-0.7c0.7,0,1.4,0,2,0
		c0.6,0,1.2,0.1,1.8,0.1c0.5,0,1,0.1,1.4,0.1v16.8H237.4z M233.5,45.6c0.7,0,1.4-0.1,2-0.3c0.6-0.2,1.3-0.5,1.9-0.8v-8.8h-3.7
		c-0.8,0-1.5,0.2-2,0.6c-0.5,0.4-0.8,1-1,1.7c-0.2,0.7-0.3,1.6-0.3,2.6c0,1.2,0.1,2.1,0.3,2.8c0.2,0.7,0.5,1.3,1,1.6
		S232.8,45.6,233.5,45.6z"/>
	<path id="XMLID_36_" class="st0" d="M247.9,46.7c-1.1,0-2-0.3-2.6-0.9c-0.6-0.6-0.9-1.5-0.9-2.8v-8.3h1.3v8c0,1.1,0.2,1.8,0.7,2.2
		c0.5,0.4,1.2,0.6,2.1,0.6c0.8,0,1.5-0.1,2.1-0.3s1.3-0.5,1.9-0.9v-9.5h1.3v11.7h-0.9l-0.3-1.3c-0.6,0.4-1.3,0.7-2.1,1
		C249.6,46.6,248.8,46.7,247.9,46.7z"/>
	<path id="XMLID_38_" class="st0" d="M259.7,32.6c-0.2,0-0.3-0.1-0.3-0.3v-1.6c0-0.2,0.1-0.3,0.3-0.3h0.9c0.1,0,0.2,0,0.2,0.1
		c0,0.1,0.1,0.1,0.1,0.2v1.6c0,0.2-0.1,0.3-0.3,0.3H259.7z M259.5,46.6V34.8h1.3v11.7H259.5z"/>
	<path id="XMLID_41_" class="st0" d="M270.3,46.6c-0.7,0-1.3-0.1-1.8-0.4c-0.5-0.3-0.8-0.6-1.1-1.2c-0.2-0.5-0.4-1.2-0.4-2.1l0.1-7
		h-1.9v-0.8l1.9-0.2l0.2-3.3h1v3.3h3.6v1.1h-3.6v7c0,0.6,0.1,1,0.2,1.4c0.1,0.3,0.3,0.6,0.5,0.8c0.2,0.2,0.4,0.3,0.6,0.4
		c0.2,0.1,0.4,0.1,0.7,0.1l1.4,0.1v0.9H270.3z"/>
	<path id="XMLID_43_" class="st0" d="M281,46.7c-1.2,0-2.2-0.2-2.9-0.6c-0.7-0.4-1.2-1-1.5-1.9c-0.3-0.9-0.4-2.1-0.4-3.6
		c0-1.5,0.2-2.7,0.5-3.6c0.3-0.9,0.8-1.5,1.5-1.8c0.7-0.4,1.7-0.5,2.9-0.5c1,0,1.8,0.1,2.5,0.3c0.6,0.2,1.1,0.6,1.4,1.2
		c0.3,0.6,0.5,1.3,0.5,2.3c0,0.7-0.1,1.2-0.4,1.6c-0.3,0.4-0.6,0.7-1.1,0.9c-0.5,0.2-1.1,0.3-1.7,0.3h-4.7c0,1.1,0.1,1.9,0.3,2.6
		c0.2,0.6,0.6,1.1,1.1,1.4c0.5,0.3,1.3,0.4,2.4,0.4h3.9v0.8c-0.7,0.1-1.4,0.1-2,0.2S281.9,46.7,281,46.7z M277.5,40.4h4.6
		c0.7,0,1.3-0.1,1.6-0.4s0.5-0.7,0.5-1.4c0-0.7-0.1-1.3-0.3-1.7s-0.6-0.7-1-0.9c-0.5-0.2-1.1-0.3-1.9-0.3c-0.9,0-1.6,0.1-2.2,0.4
		c-0.5,0.3-0.9,0.7-1.1,1.4S277.5,39.1,277.5,40.4z"/>
	<path id="XMLID_46_" class="st0" d="M294.5,46.6c-0.7,0-1.3-0.1-1.8-0.4c-0.5-0.3-0.8-0.6-1.1-1.2c-0.2-0.5-0.4-1.2-0.4-2.1l0.1-7
		h-1.9v-0.8l1.9-0.2l0.2-3.3h1v3.3h3.6v1.1h-3.6v7c0,0.6,0.1,1,0.2,1.4c0.1,0.3,0.3,0.6,0.5,0.8c0.2,0.2,0.4,0.3,0.6,0.4
		c0.2,0.1,0.4,0.1,0.6,0.1l1.4,0.1v0.9H294.5z"/>
	<path id="XMLID_48_" class="st0" d="M304.5,46.7c-1.1,0-2-0.3-2.6-0.9c-0.6-0.6-0.9-1.5-0.9-2.8v-8.3h1.3v8c0,1.1,0.2,1.8,0.7,2.2
		s1.2,0.6,2.1,0.6c0.8,0,1.5-0.1,2.1-0.3c0.6-0.2,1.3-0.5,1.9-0.9v-9.5h1.3v11.7h-0.9l-0.3-1.3c-0.6,0.4-1.3,0.7-2.1,1
		C306.2,46.6,305.4,46.7,304.5,46.7z"/>
	<path id="XMLID_50_" class="st0" d="M316.1,46.6V34.8h0.9l0.3,2.1c0.6-0.6,1.2-1.2,1.9-1.6c0.7-0.4,1.5-0.6,2.4-0.6
		c0.2,0,0.4,0,0.6,0s0.4,0.1,0.5,0.1v1.3c-0.2,0-0.4-0.1-0.6-0.1c-0.2,0-0.4,0-0.7,0c-0.6,0-1.1,0.1-1.5,0.2
		c-0.4,0.1-0.9,0.4-1.3,0.6c-0.4,0.3-0.8,0.6-1.3,1.1v8.6H316.1z"/>
	<path id="XMLID_52_" class="st0" d="M329.1,46.7c-0.9,0-1.6-0.3-2.1-0.8c-0.6-0.5-0.8-1.2-0.8-2.2V43c0-0.9,0.3-1.7,0.9-2.2
		s1.5-0.9,2.7-0.9h4.3v-1.6c0-0.5-0.1-1-0.3-1.4c-0.2-0.4-0.5-0.7-1-0.9s-1.1-0.3-2-0.3h-3.7v-0.8c0.5-0.1,1.1-0.1,1.7-0.2
		s1.4-0.1,2.3-0.1c1,0,1.7,0.1,2.3,0.4c0.6,0.3,1.1,0.6,1.3,1.2s0.4,1.2,0.4,2v8.4h-1l-0.3-1.4c0,0-0.2,0.1-0.5,0.3
		c-0.3,0.2-0.7,0.3-1.2,0.5s-1,0.4-1.6,0.5C330.2,46.6,329.6,46.7,329.1,46.7z M329.5,45.7c0.3,0,0.6,0,1-0.1
		c0.4-0.1,0.8-0.2,1.2-0.3c0.4-0.1,0.8-0.2,1.1-0.3c0.3-0.1,0.6-0.2,0.8-0.3s0.3-0.1,0.3-0.1v-4l-4.1,0.2c-0.9,0-1.6,0.3-1.9,0.7
		c-0.4,0.4-0.6,1-0.6,1.6v0.6c0,0.5,0.1,1,0.3,1.3c0.2,0.3,0.5,0.5,0.8,0.7S329.2,45.7,329.5,45.7z"/>
</g>
</svg>
