<?xml version="1.0" encoding="utf-8"?>
<!-- Generator: Adobe Illustrator 19.0.0, SVG Export Plug-In . SVG Version: 6.00 Build 0)  -->
<svg version="1.1" id="Camada_1" xmlns="http://www.w3.org/2000/svg" xmlns:xlink="http://www.w3.org/1999/xlink" x="0px" y="0px"
	 viewBox="-275 359 60 75" style="enable-background:new -275 359 60 75;" xml:space="preserve">
<g>
	<path d="M-216,419h-58c-0.6,0-1-0.4-1-1v-34c0-0.6,0.4-1,1-1h10v2h-9v32h56v-32h-9v-2h10c0.6,0,1,0.4,1,1v34
		C-215,418.6-215.4,419-216,419z"/>
	<path d="M-216,419c-0.2,0-0.4-0.1-0.5-0.2l-22.8-15c-0.3-0.2-0.4-0.5-0.4-0.8c0-0.3,0.1-0.6,0.4-0.8l22.8-19
		c0.3-0.2,0.7-0.3,1.1-0.1c0.4,0.2,0.6,0.5,0.6,0.9v34c0,0.4-0.2,0.7-0.5,0.9C-215.7,419-215.8,419-216,419z M-237.2,402.9
		l20.2,13.2v-30L-237.2,402.9z"/>
	<path d="M-274,419c-0.2,0-0.3,0-0.5-0.1c-0.3-0.2-0.5-0.5-0.5-0.9v-34c0-0.4,0.2-0.7,0.6-0.9c0.4-0.2,0.8-0.1,1.1,0.1l22.8,19
		c0.2,0.2,0.4,0.5,0.4,0.8c0,0.3-0.2,0.6-0.4,0.8l-22.8,15C-273.6,418.9-273.8,419-274,419z M-273,386.1v30l20.2-13.2L-273,386.1z"
		/>
	<g>
		<path d="M-216,419c-0.2,0-0.4-0.1-0.5-0.2l-22.8-15c-0.3-0.2-0.4-0.5-0.4-0.8c0-0.3,0.1-0.6,0.4-0.8l12.5-10.4V384
			c0-0.6,0.4-1,1-1h10c0.6,0,1,0.4,1,1v34c0,0.4-0.2,0.7-0.5,0.9C-215.7,419-215.8,419-216,419z M-237.2,402.9l20.2,13.2V385h-8v7.3
			c0,0.3-0.1,0.6-0.4,0.8L-237.2,402.9z M-226,392.3L-226,392.3L-226,392.3z"/>
		<path d="M-274,419c-0.2,0-0.3,0-0.5-0.1c-0.3-0.2-0.5-0.5-0.5-0.9v-34c0-0.6,0.4-1,1-1h10c0.6,0,1,0.4,1,1v7.9l12.5,10.4
			c0.2,0.2,0.4,0.5,0.4,0.8c0,0.3-0.2,0.6-0.4,0.8l-22.8,15C-273.6,418.9-273.8,419-274,419z M-273,385v31.1l20.2-13.2l-11.8-9.8
			c-0.2-0.2-0.4-0.5-0.4-0.8V385H-273z"/>
	</g>
	<g>
		<path d="M-264,385h-10c-0.4,0-0.8-0.3-0.9-0.7s0-0.8,0.3-1.1l10-8.3c0.3-0.2,0.7-0.3,1.1-0.1c0.4,0.2,0.6,0.5,0.6,0.9v8.3
			C-263,384.6-263.4,385-264,385z M-271.2,383h6.2v-5.1L-271.2,383z"/>
		<path d="M-237.8,367h-14.5c-0.4,0-0.8-0.3-0.9-0.7c-0.1-0.4,0-0.8,0.3-1.1l7.3-6c0.4-0.3,0.9-0.3,1.3,0l7.3,6
			c0.3,0.3,0.4,0.7,0.3,1.1S-237.3,367-237.8,367z M-249.5,365h8.9l-4.5-3.7L-249.5,365z"/>
		<path d="M-216,385h-10c-0.6,0-1-0.4-1-1v-4.2c0-0.5,0.3-0.9,0.8-1c1-0.2,2-0.6,3-1.2c0.4-0.2,0.8-0.2,1.2,0.1l6.7,5.5
			c0.3,0.3,0.4,0.7,0.3,1.1C-215.2,384.7-215.6,385-216,385z M-225,383h6.2l-4-3.3c-0.7,0.4-1.4,0.7-2.2,0.9V383z"/>
	</g>
	<path d="M-228,381c-6.1,0-11-4.9-11-11s4.9-11,11-11s11,4.9,11,11S-221.9,381-228,381z M-228,361c-5,0-9,4-9,9s4,9,9,9s9-4,9-9
		S-223,361-228,361z"/>
	<path d="M-229,374c-0.3,0-0.5-0.1-0.7-0.3l-3-3c-0.4-0.4-0.4-1,0-1.4c0.4-0.4,1-0.4,1.4,0l2.2,2.2l4.3-5.2c0.4-0.4,1-0.5,1.4-0.1
		c0.4,0.4,0.5,1,0.1,1.4l-5,6C-228.4,373.9-228.7,374-229,374C-229,374-229,374-229,374z"/>
	<path d="M-237,385h-7c-0.6,0-1-0.4-1-1s0.4-1,1-1h7c0.6,0,1,0.4,1,1S-236.4,385-237,385z"/>
	<path d="M-248,385h-11c-0.6,0-1-0.4-1-1s0.4-1,1-1h11c0.6,0,1,0.4,1,1S-247.4,385-248,385z"/>
	<path d="M-234,395h-7c-0.6,0-1-0.4-1-1s0.4-1,1-1h7c0.6,0,1,0.4,1,1S-233.4,395-234,395z"/>
	<path d="M-245,395h-11c-0.6,0-1-0.4-1-1s0.4-1,1-1h11c0.6,0,1,0.4,1,1S-244.4,395-245,395z"/>
	<path d="M-231,385h-2c-0.6,0-1-0.4-1-1s0.4-1,1-1h2c0.6,0,1,0.4,1,1S-230.4,385-231,385z"/>
	<path d="M-246,390h-7c-0.6,0-1-0.4-1-1s0.4-1,1-1h7c0.6,0,1,0.4,1,1S-245.4,390-246,390z"/>
	<path d="M-231,390h-11c-0.6,0-1-0.4-1-1s0.4-1,1-1h11c0.6,0,1,0.4,1,1S-230.4,390-231,390z"/>
	<path d="M-253,380h-7c-0.6,0-1-0.4-1-1s0.4-1,1-1h7c0.6,0,1,0.4,1,1S-252.4,380-253,380z"/>
	<path d="M-238,380h-11c-0.6,0-1-0.4-1-1s0.4-1,1-1h11c0.6,0,1,0.4,1,1S-237.4,380-238,380z"/>
	<path d="M-257,390h-2c-0.6,0-1-0.4-1-1s0.4-1,1-1h2c0.6,0,1,0.4,1,1S-256.4,390-257,390z"/>
	<path d="M-241,375h-12c-0.6,0-1-0.4-1-1s0.4-1,1-1h12c0.6,0,1,0.4,1,1S-240.4,375-241,375z"/>
	<path d="M-257,375h-2c-0.6,0-1-0.4-1-1s0.4-1,1-1h2c0.6,0,1,0.4,1,1S-256.4,375-257,375z"/>
	<path d="M-238.8,404c-0.2,0-0.4-0.1-0.5-0.2l-3.3-2.2c-1.4-0.9-3.2-0.9-4.6,0l-3.3,2.2c-0.4,0.2-0.9,0.2-1.2-0.1l-12.8-10.7
		c-0.2-0.2-0.4-0.5-0.4-0.8V366c0-0.6,0.4-1,1-1h26.8c0.3,0,0.7,0.2,0.8,0.5c0.2,0.3,0.2,0.6,0.1,0.9c-0.5,1.1-0.8,2.4-0.8,3.6
		c0,5,4,9,9,9c0.6,0,1.2-0.1,1.8-0.2c0.3-0.1,0.6,0,0.8,0.2c0.2,0.2,0.4,0.5,0.4,0.8v12.5c0,0.3-0.1,0.6-0.4,0.8l-12.8,10.7
		C-238.4,404-238.6,404-238.8,404z M-245,399c1.2,0,2.4,0.3,3.4,1l2.7,1.8l11.9-9.9V381c-0.3,0-0.7,0-1,0c-6.1,0-11-4.9-11-11
		c0-1,0.1-2,0.4-3H-263v24.9l11.9,9.9l2.7-1.8C-247.4,399.3-246.2,399-245,399z"/>
</g>
</svg>
